<svg width="400" height="150" viewBox="0 0 400 150" fill="none" xmlns="http://www.w3.org/2000/svg">
<path d="M0 20C0 10.5719 0 5.85786 2.92893 2.92893C5.85786 0 10.5719 0 20 0H380C389.428 0 394.142 0 397.071 2.92893C400 5.85786 400 10.5719 400 20V150H0V20Z" fill="#2763FE"/>
<g opacity="0.2">
<mask id="mask0_302_141" style="mask-type:alpha" maskUnits="userSpaceOnUse" x="0" y="0" width="400" height="150">
<path d="M0 20C0 10.5719 0 5.85786 2.92893 2.92893C5.85786 0 10.5719 0 20 0H380C389.428 0 394.142 0 397.071 2.92893C400 5.85786 400 10.5719 400 20V150H0V20Z" fill="#2763FE"/>
</mask>
<g mask="url(#mask0_302_141)">
<path d="M-3.23377 35.0965V77.1995L-39.9876 56.0222V98.8508L-2.82058 120.259V77.6736L33.5408 56.7437V141.189L70.2698 162.383V204.943L107.23 183.655L143.777 204.704V246.572L107.003 225.399V268.223L143.777 289.392V289.632L143.984 289.512L144.191 289.632V289.392L180.841 268.281L180.945 268.223V226.112L217.306 247.046V289.632L254.37 268.281L254.473 268.223V183.774L290.813 204.704V331.265L254.46 310.322V310.087L254.254 310.207L254.047 310.087V310.322L217.397 331.434L217.293 331.495V374.316L254.047 353.143V437.588L290.801 458.761V459L291.008 458.88L291.214 459V458.761L327.861 437.65L327.964 437.588V395.485L364.325 416.419V416.658L364.532 416.538L364.738 416.658V416.419L401.389 395.307L401.492 395.25V353.143L437.833 374.077V416.658L474.897 395.307L475 395.25V352.429L438.226 373.607V331.735L474.876 310.623L474.979 310.561V267.745L438.205 288.914V246.807L401.451 225.638V183.774L438.205 204.943V162.383L474.855 141.271L474.959 141.209V98.3726L437.92 119.723L437.816 119.781V161.884L401.463 140.946V56.7437L438.217 77.9127V35.0965L401.463 13.9233V-71L364.4 -49.6496L364.296 -49.5919V-7.46415L327.935 -28.3982V-28.6373L327.729 -28.5177L327.522 -28.6373V-28.3982L291.206 -7.46415V-49.5919L254.46 -70.7609V-71L254.254 -70.8804L254.047 -71V-70.7609L217.397 -49.6496L217.293 -49.5919V34.8574L180.932 13.9233V-71L143.972 -49.7115L107.321 -70.8227L107.011 -71V-28.4188L70.3607 -7.30337L70.2574 -7.24566V34.8574L33.9209 13.9233V-71L-3.03953 -49.7115L-39.6901 -70.8227L-40 -71V-28.1838L-3.24613 -7.00655V35.0965H-3.23377ZM-2.82058 34.8574V-7.00655L30.4004 -26.1473L33.5201 -27.9447V13.9233L6.31933 29.5888L-2.82058 34.8574ZM-3.23377 119.542L-39.5744 98.6117V56.7437L-3.23377 77.6736V119.542ZM-2.82058 35.3314L24.3761 19.666L33.5201 14.3851V56.2655L-2.84121 77.1995L-2.82058 35.3314ZM33.954 56.7437L52.1346 67.2066L70.3153 77.6736V119.542L52.1346 109.079L33.954 98.6117V56.7437ZM70.7037 35.3314L107.354 14.2243L107.457 14.1624V-27.9447L143.819 -7.00655V77.1995L107.044 56.0264V140.946L70.7037 161.88V35.3191V35.3314ZM180.531 -27.9447V13.9233L153.149 29.7001L144.191 34.8574V-7.00655L178.127 -26.5595L180.531 -27.9447ZM217.719 35.3314L254.266 14.282L290.813 35.3314V35.5706L291.02 35.451L291.227 35.5706V35.3314L327.774 14.282L364.317 35.3314V119.542L327.956 98.6117V98.3726L327.749 98.4921L327.543 98.3726V98.6117L290.896 119.723L290.793 119.781V161.884L254.46 140.946V98.3726L217.397 119.723L217.293 119.781V204.23L180.932 183.296V183.061L180.726 183.176L180.519 183.061V183.296L144.178 204.23V162.383L180.829 141.271L180.932 141.209V56.7437L217.707 77.9127L217.719 35.3314ZM290.813 -7.00655V34.8574L254.46 13.9233V-27.9447L272.641 -17.4777L290.813 -7.00655ZM398.658 -26.5595L401.063 -27.9447V13.9233L373.68 29.7001L364.722 34.8574V-7.00655L398.658 -26.5595ZM373.841 71.968L364.722 77.2201V35.3314L392.109 19.5588L401.05 14.3851V56.2655L373.841 71.968ZM401.063 99.1064V140.946L373.68 156.722L364.722 161.88V120.02L391.947 104.354L401.063 99.1064ZM373.841 198.999L364.722 204.251V162.383L392.109 146.606L401.063 141.449V183.296L373.841 198.999ZM364.515 247.186L364.722 247.306V247.067L401.063 226.133V310.322L364.515 331.376L327.968 310.322V226.112L364.329 247.046V247.306L364.515 247.186ZM437.816 289.413V331.256L419.636 320.789L401.455 310.322V268.458L419.636 278.925L437.816 289.413ZM367.114 372.217L364.71 373.603V331.735L401.05 310.792V352.656L367.114 372.217ZM300.499 410.59L291.206 415.949V374.077L327.543 353.143V395.011L300.499 410.59ZM327.543 352.429V352.669L291.206 373.607V331.735L327.543 310.792V352.429ZM327.956 352.669V310.792L364.317 331.726V373.594L346.136 363.127L327.956 352.669ZM364.317 246.576L327.956 225.642V183.774L364.317 204.704V246.572V246.576ZM327.77 183.181L327.563 183.065V183.3L291.227 204.234V162.383L327.774 141.329L364.296 162.383V204.23L327.935 183.296V183.061L327.77 183.181ZM327.563 140.958L291.227 161.888V120.02L327.563 99.0858V140.958ZM364.338 120.263V161.9L327.976 140.97V99.0858L364.338 120.02V120.263ZM226.855 199.003L217.686 204.23V162.383L245.068 146.606L254.047 141.428V183.296L226.855 199.003ZM217.74 161.9V120.02L254.047 99.0858V140.946L226.661 156.722L217.74 161.9ZM107.437 140.946V99.0858L125.617 109.553L143.798 120.02V161.884L125.617 151.417L107.437 140.946ZM180.531 56.7395V98.6117L153.31 114.277L144.191 119.525V77.6736L171.416 62.0081L180.531 56.7395ZM180.531 99.0817V140.946L144.191 161.875V120.02L171.416 104.354L180.531 99.0817ZM143.777 77.9085V119.546L125.597 109.083L107.416 98.6158V56.7437L143.777 77.6736V77.9085ZM153.31 71.9433L144.191 77.1953V35.3314L171.573 19.5588L180.531 14.3851V56.2655L153.31 71.9433ZM33.9333 99.0817L52.1139 109.549L70.2946 120.016V161.884L33.9333 140.946V99.0817ZM70.683 162.593V162.383L107.024 141.449V183.296L70.683 204.23V162.593ZM107.437 141.424L125.617 151.891L143.798 162.358V204.23L107.437 183.296V141.424ZM144.211 204.7L180.552 183.77V225.638L153.169 241.411L144.211 246.572V204.704V204.7ZM107.437 267.98V226.112L143.798 247.046V288.914L107.437 267.98ZM180.531 267.98L144.191 288.91V247.046L171.573 231.273L180.531 226.112V267.98ZM180.945 225.395V183.758L217.306 204.688V246.572L180.945 225.638V225.395ZM254.047 267.984L217.686 288.914V247.046L245.068 231.273L254.047 226.112V267.984ZM226.652 241.411L217.686 246.572V204.704L244.907 189.039L254.047 183.774V225.638L226.652 241.411ZM254.46 183.061V141.424L290.793 162.383V204.23L254.46 183.296V183.061ZM291.214 204.704L327.551 183.774V225.638L300.354 241.304L291.214 246.572V204.704ZM318.411 231.381L327.551 226.112V267.984L300.499 283.584L291.206 288.943V247.046L318.411 231.381ZM318.258 273.814L327.551 268.454V310.322L291.214 331.256V289.392L318.258 273.814ZM217.686 373.603V331.735L254.047 310.792V352.656L217.686 373.603ZM254.46 437.353V310.792L290.801 331.726V458.287L254.46 437.353ZM327.551 437.353L291.214 458.283V416.419L318.258 400.84L327.551 395.481V437.353ZM327.964 395.011V353.143L346.145 363.61L364.325 374.077V415.945L327.964 395.011ZM401.059 395.011L364.718 415.945V374.077L398.654 354.528L401.059 353.143V395.011ZM401.472 352.425V310.792L419.652 321.259L437.833 331.726V373.594L401.492 352.656L401.472 352.425ZM474.566 353.143V395.011L438.205 415.945V374.077L474.566 353.143ZM474.566 310.322L438.205 331.256V289.392L474.566 268.458V310.322ZM437.792 288.914L419.611 278.451L401.43 267.984V226.112L437.771 247.046L437.792 288.914ZM401.038 225.638L364.697 246.572V204.704L391.923 189.039L401.038 183.787V225.638ZM438.205 120.02L474.566 99.0858V140.946L438.205 161.875V120.02ZM437.792 162.597V204.234L401.451 183.3V141.428L437.804 162.383L437.792 162.597ZM373.829 114.294L364.71 119.542V77.6736L391.935 62.0081L401.05 56.7602V98.6117L373.829 114.294ZM437.804 77.1912L401.463 56.2572V14.3851L437.804 35.315V77.1912ZM364.71 -49.3693L401.05 -70.3033V-28.4188L367.114 -8.86992L364.71 -7.48476V-49.3693ZM364.296 -7.02304V34.8574L327.935 13.9233V-27.9447L364.296 -7.02304ZM327.522 13.9069L291.185 34.8409V-7.00655L327.522 -27.9447V13.9069ZM290.793 -49.3528V-7.46415L272.612 -17.9312L254.431 -28.3982V-70.2868L290.793 -49.3528ZM217.698 -49.3528L254.047 -70.2868V-28.4188L220.111 -8.86992L217.686 -7.46415L217.698 -49.3528ZM251.634 -26.5595L254.039 -27.9447V13.9233L217.686 34.8574V-7.00655L251.634 -26.5595ZM217.273 35.5706V77.2077L180.911 56.2737V14.3851L217.273 35.315V35.5706ZM180.498 -28.4188L146.616 -8.86992L144.211 -7.48476V-49.3528L180.552 -70.2868L180.498 -28.4188ZM107.437 -70.2868L143.798 -49.3528V-7.46415L107.437 -28.3982V-70.2868ZM70.683 -7.00655L107.024 -27.9447V13.9233L70.683 34.8574V-7.00655ZM70.2698 35.5706V77.2077L52.0891 66.7407L33.9085 56.2737V14.3851L70.245 35.315L70.2698 35.5706ZM33.5201 -28.4188L0.294941 -9.27804L-2.82058 -7.48476V-49.3528L33.5408 -70.2868L33.5201 -28.4188ZM-39.5744 -70.2868L-3.23377 -49.3528V-7.46415L-39.5744 -28.3982V-70.2868Z" fill="white"/>
</g>
</g>
</svg>
