<svg width="24" height="24" viewBox="0 0 24 24" fill="none" xmlns="http://www.w3.org/2000/svg">
<path d="M7.66955 14.4996L12.0001 6.99932L12.8043 7.01311L14.1188 7.06377L18.51 8.58383L21.8002 6.99932C19.9793 3.43804 16.2744 1 12.0001 1C8.11733 1 4.70468 3.01183 2.74707 6.0498V6.05719L3.0799 11.6875L7.66955 14.4996Z" fill="#DB4437"/>
<path d="M7.66945 14.4995L2.74697 6.05713L2.7447 6.05322C1.6407 7.76788 1 9.80902 1 11.9999C1 17.9003 5.64576 22.7151 11.4789 22.9873L15.4098 20.3803L16.3296 14.501L7.66945 14.4995Z" fill="#0F9D58"/>
<path d="M21.8002 6.99951H12.0001L16.3306 14.4998L16.3298 14.5012L11.479 22.9875L11.4828 22.9876C11.6543 22.9956 11.8267 23.0001 12.0001 23.0001C18.0752 23.0001 23.0001 18.0753 23.0001 12.0002C23 10.1994 22.5673 8.4998 21.8002 6.99951Z" fill="#FFCD40"/>
<path d="M12.0002 17.0008C14.7619 17.0008 17.0008 14.7619 17.0008 12.0002C17.0008 9.23837 14.7619 6.99951 12.0002 6.99951C9.23837 6.99951 6.99951 9.23837 6.99951 12.0002C6.99951 14.7619 9.23837 17.0008 12.0002 17.0008Z" fill="#F1F1F1"/>
<path d="M12 16.0005C14.2094 16.0005 16.0005 14.2094 16.0005 12C16.0005 9.7906 14.2094 7.99951 12 7.99951C9.7906 7.99951 7.99951 9.7906 7.99951 12C7.99951 14.2094 9.7906 16.0005 12 16.0005Z" fill="#4285F4"/>
</svg>
