<svg width="146" height="44" viewBox="0 0 146 44" fill="none" xmlns="http://www.w3.org/2000/svg">
<path d="M58.807 12.0425V23.2229C58.807 25.9162 59.7076 27.4664 62.1076 27.4664C64.5076 27.4664 65.406 25.9162 65.406 23.2229V12.0425H70.3406V22.9241C70.3406 28.3108 67.8603 31.6298 62.0794 31.6298C56.2985 31.6298 53.8442 28.4731 53.8442 23.0605V12.0425H58.807Z" fill="#2763FE"/>
<path d="M73.0942 14.6817C73.0942 12.9128 74.2943 12.0425 76.0389 12.0425C77.7836 12.0425 79.0097 12.9128 79.0097 14.6817C79.0097 16.4505 77.7836 17.2928 76.0389 17.2928C74.2943 17.2928 73.0942 16.4484 73.0942 14.6817Z" fill="#2763FE"/>
<path d="M78.4391 18.9639H73.6672V31.086H78.4391V18.9639Z" fill="#2763FE"/>
<path d="M101.99 25.2364C101.99 29.0729 99.3187 31.0864 94.9548 31.0864H86.5027V12.0425H95.7187C99.373 12.0425 101.445 13.9737 101.445 17.0762C101.445 18.9252 100.573 20.0965 99.4815 20.8023C100.981 21.5363 101.99 22.9241 101.99 25.2364ZM91.4655 15.5239V19.6592H94.3277C96.1266 19.6592 96.8645 18.8429 96.8645 17.5915C96.8645 16.3401 96.2655 15.5239 94.3017 15.5239H91.4655ZM97.1379 25.2623C97.1379 23.8204 96.2655 23.1406 94.5469 23.1406H91.4655V27.6028H94.3277C96.1549 27.6028 97.1357 26.8147 97.1357 25.2623H97.1379Z" fill="#2763FE"/>
<path d="M117.232 22.7334V31.0863H113.224L113.007 30.1076C111.944 31.0061 110.471 31.5496 108.589 31.5496C105.644 31.5496 103.872 29.8089 103.872 27.1155C103.872 24.2317 105.972 22.5169 109.325 22.5169C110.633 22.5169 111.506 22.6252 112.432 22.8698V22.3524C112.432 20.8823 111.642 20.3107 109.405 20.3107C107.66 20.3107 106.269 20.6377 105.098 21.0728V17.1562C106.38 16.7211 108.37 16.3682 110.525 16.3682C115.459 16.3682 117.232 18.2171 117.232 22.7334ZM110.197 28.1742C111.124 28.1742 111.833 27.9014 112.432 27.358V25.6714C111.805 25.535 111.178 25.4268 110.523 25.4268C109.297 25.4268 108.559 25.9161 108.559 26.8406C108.559 27.765 109.268 28.1742 110.195 28.1742H110.197Z" fill="#2763FE"/>
<path d="M129.775 16.5305V21.1551C129.421 21.0187 128.874 20.9927 128.384 20.9927C127.349 20.9927 126.149 21.3998 125.194 22.8417V31.0841H120.422V16.8033H124.404L124.732 18.1911C125.823 16.8856 127.021 16.3682 128.495 16.3682C128.905 16.3682 129.475 16.4223 129.777 16.5305H129.775Z" fill="#2763FE"/>
<path d="M146 22.3264V31.0863H141.202V22.6793C141.202 21.0209 140.438 20.367 139.156 20.367C138.255 20.367 137.493 20.694 136.73 21.3456V31.0841H131.958V16.8033H135.938L136.183 17.8642C137.409 16.8033 138.856 16.3682 140.49 16.3682C144.253 16.3682 145.998 18.4077 145.998 22.3264H146Z" fill="#2763FE"/>
<path d="M21.0315 14.4046C22.6265 14.3201 24.1086 14.1339 25.441 13.8481L26.131 11.5878C24.5773 11.3605 22.8109 11.2955 20.871 11.3973C16.1859 11.6441 13.4756 12.7353 12.6792 13.3372C13.532 13.8503 16.3422 14.6514 21.0294 14.4024L21.0315 14.4046Z" fill="#2763FE"/>
<path d="M33.4225 0H10.5775C4.73543 0 0 4.73543 0 10.5775V33.4225C0 39.2646 4.73543 44 10.5775 44H33.4225C39.2646 44 44 39.2646 44 33.4225V10.5775C44 4.73543 39.2646 0 33.4225 0ZM31.0162 25.8347C29.8473 29.7315 26.6625 32.5325 22.6863 33.1737L21.2172 37.9864H17.6935L19.2055 33.1587C14.5301 32.3652 10.9893 28.5391 10.5582 23.7715L9.70248 14.8818L9.58452 13.5093C9.56093 13.2433 9.5738 12.9945 9.61669 12.7672C9.64243 12.6428 9.67459 12.527 9.7132 12.4241C9.7325 12.3726 9.75395 12.3233 9.77754 12.2739C9.85904 12.0938 9.97056 11.9115 10.1057 11.7378C10.1336 11.7013 10.1593 11.667 10.1807 11.6413C11.8493 9.64242 16.7692 8.70521 20.4773 8.51004C22.7035 8.39208 24.831 8.48859 26.6432 8.79099L27.3424 6.49834H30.7974L29.7894 9.89121L24.6036 26.9563C24.4385 27.4946 24.0031 27.9128 23.4648 28.048C22.8772 28.1938 22.2724 28.2689 21.6697 28.2689C21.451 28.2689 21.2322 28.2581 20.9984 28.2388L20.7389 28.2174L24.2283 16.7112C23.1688 16.8764 22.06 16.9901 20.932 17.0501C20.3808 17.0801 19.8103 17.0951 19.2334 17.0951C17.8822 17.0951 15.3558 17.0072 13.2262 16.4367L13.6465 21.1529H13.6422C13.6615 21.2558 13.683 21.4338 13.7216 21.7684C13.743 21.9464 13.7666 22.1566 13.7816 22.2724H13.7859L13.9575 24.0632C14.5087 27.2566 17.1273 29.6715 20.3636 29.9524C20.9212 30.0018 21.436 29.9867 21.9442 29.9203C22.0815 29.901 22.2316 29.8774 22.4011 29.843L22.4783 29.828C22.622 29.798 22.7635 29.7637 22.9051 29.7251L22.9758 29.7036C23.0058 29.6951 23.038 29.6843 23.0702 29.6758C23.141 29.6565 23.2117 29.6307 23.2825 29.6071L23.364 29.5793C23.3897 29.5707 23.4155 29.5621 23.4412 29.5535L23.6064 29.4913C25.6524 28.6892 27.1858 27.0185 27.8271 24.8824L29.7616 18.4334L33.2037 18.5492L31.0162 25.839V25.8347ZM34.4048 14.5408L33.7163 16.8356C33.637 17.1037 33.3903 17.2839 33.1115 17.2839C33.1051 17.2839 30.1283 17.2045 30.1283 17.2045L31.1105 13.9296H33.9479C34.1002 13.9296 34.2375 14.0004 34.3297 14.1205C34.4198 14.2427 34.4477 14.395 34.4048 14.5408Z" fill="#2763FE"/>
</svg>
