<svg width="24" height="24" viewBox="0 0 24 24" fill="none" xmlns="http://www.w3.org/2000/svg">
<path d="M22.7984 7.83728C22.3063 6.65368 21.3097 5.37588 20.5272 4.97203C21.1641 6.22067 21.5327 7.47323 21.6736 8.40802C21.6736 8.40985 21.6743 8.41441 21.6758 8.42687C20.3956 5.236 18.2248 3.94935 16.4522 1.14781C16.3627 1.00615 16.273 0.864129 16.1855 0.714393C16.141 0.63795 16.0994 0.559819 16.0609 0.480182C15.9872 0.337976 15.9305 0.187693 15.8916 0.0323431C15.8922 0.0171003 15.881 0.00395672 15.8659 0.00199431C15.859 -1.37291e-05 15.8516 -1.37291e-05 15.8446 0.00199431C15.843 0.00254196 15.8407 0.00441309 15.839 0.00505201C15.8365 0.00605603 15.8194 0.0161875 15.8202 0.0152748C12.9761 1.6809 12.0266 4.75014 11.9379 6.29173C10.8022 6.36981 9.71636 6.78822 8.82196 7.49244C8.72831 7.41336 8.63042 7.33942 8.5287 7.27101C8.27066 6.36822 8.25966 5.41266 8.49693 4.50416C7.33391 5.03374 6.42929 5.87082 5.77165 6.60996H5.76641C5.31761 6.0415 5.34924 4.16626 5.37484 3.77474C5.36945 3.75046 5.04004 3.94574 4.99687 3.97518C4.60083 4.25786 4.23057 4.57504 3.89044 4.92302C3.50339 5.3155 3.14975 5.73961 2.83321 6.19087C2.83321 6.19142 2.83289 6.1921 2.8327 6.19265C2.8327 6.19206 2.83302 6.19142 2.83321 6.19087C2.1052 7.22255 1.58886 8.38826 1.31408 9.6207C1.30865 9.64525 1.30408 9.67067 1.29883 9.6954C1.27752 9.79508 1.20085 10.2937 1.18743 10.4021C1.18638 10.4104 1.18593 10.4184 1.18492 10.4267C1.08575 10.9423 1.02437 11.4643 1.00119 11.9888C1.00119 12.0081 1 12.0272 1 12.0466C1.00027 18.2987 6.06926 23.3668 12.3218 23.3668C17.9215 23.3668 22.571 19.3018 23.4813 13.9624C23.5004 13.8175 23.5158 13.6718 23.5327 13.5256C23.7577 11.5842 23.5077 9.54366 22.7984 7.83728ZM9.74926 16.6983C9.8022 16.7236 9.85195 16.7513 9.90635 16.7755C9.90863 16.7771 9.91173 16.7788 9.91402 16.7802C9.85866 16.7538 9.80376 16.7265 9.74926 16.6983ZM21.6767 8.42965L21.6752 8.41865C21.6757 8.42267 21.6764 8.42687 21.677 8.43084L21.6767 8.42965Z" fill="url(#paint0_linear_157_4533)"/>
<path d="M22.7983 7.83741C22.3062 6.65381 21.3096 5.37601 20.527 4.97217C21.1639 6.2208 21.5326 7.47337 21.6734 8.40816C21.6734 8.40542 21.6739 8.41044 21.6751 8.41879C21.6757 8.4228 21.6764 8.427 21.677 8.43097C22.7452 11.3268 22.1633 14.2715 21.3247 16.071C20.0273 18.8552 16.8863 21.7086 11.9698 21.5694C6.65798 21.419 1.97837 17.4777 1.10483 12.3155C0.945646 11.5015 1.10483 11.0882 1.18492 10.4272C1.08735 10.9367 1.0502 11.0839 1.00119 11.9892C1.00119 12.0085 1 12.0276 1 12.047C1.00014 18.2988 6.06912 23.367 12.3217 23.367C17.9214 23.367 22.5709 19.302 23.4811 13.9625C23.5003 13.8176 23.5157 13.6719 23.5326 13.5257C23.7576 11.5843 23.5076 9.54379 22.7983 7.83741Z" fill="url(#paint1_radial_157_4533)"/>
<path d="M22.7983 7.83741C22.3062 6.65381 21.3096 5.37601 20.527 4.97217C21.1639 6.2208 21.5326 7.47337 21.6734 8.40816C21.6734 8.40542 21.6739 8.41044 21.6751 8.41879C21.6757 8.4228 21.6764 8.427 21.677 8.43097C22.7452 11.3268 22.1633 14.2715 21.3247 16.071C20.0273 18.8552 16.8863 21.7086 11.9698 21.5694C6.65798 21.419 1.97837 17.4777 1.10483 12.3155C0.945646 11.5015 1.10483 11.0882 1.18492 10.4272C1.08735 10.9367 1.0502 11.0839 1.00119 11.9892C1.00119 12.0085 1 12.0276 1 12.047C1.00014 18.2988 6.06912 23.367 12.3217 23.367C17.9214 23.367 22.5709 19.302 23.4811 13.9625C23.5003 13.8176 23.5157 13.6719 23.5326 13.5257C23.7576 11.5843 23.5076 9.54379 22.7983 7.83741Z" fill="url(#paint2_radial_157_4533)"/>
<path d="M17.2964 9.16779C17.321 9.18513 17.3435 9.20238 17.3667 9.21958C17.0825 8.71529 16.7287 8.25362 16.3157 7.84814C12.7964 4.32927 15.8221 0.0145846 15.823 0.0136719C12.9789 1.6793 12.0267 4.74982 11.938 6.29136C12.0699 6.28223 12.2015 6.27114 12.3357 6.27114C14.458 6.27118 16.3065 7.43809 17.2964 9.16779Z" fill="url(#paint3_radial_157_4533)"/>
<path d="M12.3427 9.87076C12.3242 10.1524 11.3292 11.1236 10.9813 11.1236C7.76185 11.1236 7.23926 13.0709 7.23926 13.0709C7.38187 14.7107 8.52349 16.0611 9.90617 16.7757C9.96924 16.8083 10.0331 16.8377 10.097 16.8668C10.2065 16.9153 10.3174 16.9607 10.4295 17.0028C10.9036 17.1706 11.4002 17.2664 11.9027 17.2869C17.5455 17.5516 18.6387 10.5411 14.5665 8.50529C15.6094 8.32393 16.6918 8.74334 17.2964 9.16799C16.3065 7.43843 14.458 6.27148 12.3357 6.27148C12.2014 6.27148 12.07 6.28257 11.938 6.2917C10.8023 6.36979 9.7165 6.78819 8.8221 7.49242C8.9947 7.63846 9.18957 7.8337 9.60008 8.23809C10.3681 8.99498 12.3385 9.7788 12.3427 9.87076Z" fill="url(#paint4_radial_157_4533)"/>
<path d="M12.3427 9.87076C12.3242 10.1524 11.3292 11.1236 10.9813 11.1236C7.76185 11.1236 7.23926 13.0709 7.23926 13.0709C7.38187 14.7107 8.52349 16.0611 9.90617 16.7757C9.96924 16.8083 10.0331 16.8377 10.097 16.8668C10.2065 16.9153 10.3174 16.9607 10.4295 17.0028C10.9036 17.1706 11.4002 17.2664 11.9027 17.2869C17.5455 17.5516 18.6387 10.5411 14.5665 8.50529C15.6094 8.32393 16.6918 8.74334 17.2964 9.16799C16.3065 7.43843 14.458 6.27148 12.3357 6.27148C12.2014 6.27148 12.07 6.28257 11.938 6.2917C10.8023 6.36979 9.7165 6.78819 8.8221 7.49242C8.9947 7.63846 9.18957 7.8337 9.60008 8.23809C10.3681 8.99498 12.3385 9.7788 12.3427 9.87076Z" fill="url(#paint5_radial_157_4533)"/>
<path d="M8.29435 7.11581C8.37321 7.16669 8.45143 7.21849 8.52901 7.27125C8.27098 6.36845 8.25998 5.4129 8.49725 4.50439C7.33423 5.03397 6.42961 5.87105 5.77197 6.61019C5.82637 6.60869 7.46859 6.57911 8.29435 7.11581Z" fill="url(#paint6_radial_157_4533)"/>
<path d="M1.10474 12.3153C1.97828 17.4775 6.65789 21.4188 11.9697 21.5693C16.8862 21.7084 20.0272 18.8548 21.3246 16.0708C22.1631 14.2713 22.7451 11.3269 21.6769 8.43083L21.6765 8.42959L21.675 8.41864C21.6738 8.41024 21.6732 8.40527 21.6733 8.40801C21.6733 8.40983 21.6741 8.4144 21.6756 8.42686C22.0771 11.049 20.7433 13.5893 18.6582 15.307L18.6519 15.3217C14.589 18.6299 10.701 17.3176 9.91383 16.7805C9.85852 16.7539 9.80353 16.7265 9.74895 16.6984C7.38019 15.5664 6.40163 13.4084 6.61143 11.5576C4.61128 11.5576 3.92928 9.87068 3.92928 9.87068C3.92928 9.87068 5.72506 8.59028 8.09181 9.70388C10.2838 10.7352 12.3424 9.87078 12.3427 9.87068C12.3385 9.77873 10.368 8.9949 9.5998 8.23806C9.18934 7.83366 8.99442 7.6387 8.82182 7.49239C8.72818 7.4133 8.63028 7.33937 8.52856 7.27096C8.45088 7.21829 8.37266 7.16649 8.29389 7.11551C7.46818 6.57882 5.82592 6.60839 5.77152 6.60981H5.76627C5.31747 6.04135 5.3491 4.16611 5.3747 3.77454C5.36932 3.75027 5.03991 3.94555 4.99673 3.97498C4.60069 4.25766 4.23044 4.57489 3.8903 4.92282C3.50325 5.3154 3.14961 5.7396 2.83307 6.19095C2.83307 6.1915 2.83275 6.19218 2.83257 6.19273C2.83257 6.19214 2.83289 6.1915 2.83307 6.19095C2.10506 7.22263 1.58872 8.38834 1.31394 9.62078C1.30851 9.64524 0.906399 11.4034 1.10474 12.3153Z" fill="url(#paint7_radial_157_4533)"/>
<path d="M16.316 7.84832C16.7291 8.25381 17.0829 8.71548 17.367 9.21977C17.4294 9.26659 17.4876 9.31328 17.537 9.35883C20.1036 11.7237 18.7588 15.0685 18.6585 15.3069C20.7436 13.5893 22.0775 11.049 21.6759 8.42678C20.3957 5.23595 18.225 3.9493 16.4524 1.14776C16.3629 1.00611 16.2731 0.864083 16.1857 0.714347C16.1412 0.637905 16.0995 0.559774 16.061 0.480136C15.9874 0.337931 15.9306 0.187647 15.8918 0.0322976C15.8923 0.0170548 15.8812 0.00391123 15.866 0.00194883C15.8591 -5.92147e-05 15.855 -0.000835049 15.848 0.00117299C15.8464 0.00172064 15.8408 0.0043676 15.8391 0.00500653C15.8366 0.00601055 15.8335 0.00833805 15.8308 0.00970717C15.3997 0.231596 12.7967 4.32946 16.316 7.84832Z" fill="url(#paint8_radial_157_4533)"/>
<path d="M17.5367 9.35885C17.4873 9.3133 17.4291 9.26662 17.3668 9.21979C17.3437 9.20245 17.3211 9.1852 17.2964 9.168C16.6919 8.74334 15.6095 8.32393 14.5666 8.5053C18.6388 10.5411 17.5456 17.5516 11.9028 17.2869C11.4003 17.2664 10.9037 17.1706 10.4296 17.0028C10.3175 16.9606 10.2066 16.9153 10.0971 16.8668C10.0332 16.8377 9.96937 16.8083 9.90625 16.7757C9.90853 16.7772 9.91164 16.779 9.91392 16.7804C10.7011 17.3174 14.589 18.6298 18.652 15.3216L18.6583 15.3069C18.7586 15.0687 20.1033 11.7238 17.5367 9.35885Z" fill="url(#paint9_radial_157_4533)"/>
<path d="M7.23958 13.0705C7.23958 13.0705 7.76217 11.1232 10.9816 11.1232C11.3296 11.1232 12.3247 10.1521 12.3431 9.87044C12.3615 9.58881 10.2844 10.735 8.09222 9.70364C5.72547 8.59004 3.92969 9.87044 3.92969 9.87044C3.92969 9.87044 4.61169 11.5574 6.61184 11.5574C6.40204 13.4081 7.3806 15.5664 9.74936 16.6981C9.8023 16.7234 9.85204 16.7511 9.90639 16.7754C8.52386 16.0608 7.38219 14.7104 7.23958 13.0705Z" fill="url(#paint10_radial_157_4533)"/>
<path d="M22.7986 7.83724C22.3066 6.65363 21.31 5.37583 20.5274 4.97199C21.1643 6.22063 21.533 7.47319 21.6738 8.40798C21.6738 8.4098 21.6746 8.41437 21.6761 8.42682C20.3958 5.23596 18.2251 3.9493 16.4525 1.14776C16.363 1.00611 16.2732 0.864083 16.1858 0.714347C16.1413 0.637905 16.0997 0.559774 16.0612 0.480137C15.9875 0.337931 15.9307 0.187647 15.8919 0.0322976C15.8924 0.0170548 15.8813 0.00391123 15.8662 0.00194883C15.8592 -5.92147e-05 15.8552 -0.000835049 15.8482 0.00117299C15.8466 0.00172064 15.8409 0.0043676 15.8392 0.00500653C15.8367 0.00601055 15.8277 0.0111676 15.8266 0.0118065C12.902 1.76245 12.0268 4.75015 11.9382 6.29168C12.07 6.28256 12.2016 6.27147 12.3358 6.27147C14.4582 6.27147 16.3067 7.43837 17.2965 9.16797C16.692 8.74332 15.6095 8.32391 14.5666 8.50527C18.6388 10.5411 17.5456 17.5515 11.9028 17.2869C11.4003 17.2664 10.9037 17.1706 10.4297 17.0028C10.3175 16.9606 10.2067 16.9153 10.0971 16.8669C10.0332 16.8377 9.96941 16.8083 9.90629 16.7757C9.90857 16.7773 9.91167 16.779 9.91396 16.7804C9.85864 16.7538 9.80365 16.7264 9.74907 16.6983C9.80201 16.7236 9.85175 16.7513 9.90615 16.7755C8.52348 16.061 7.38182 14.7106 7.23924 13.0707C7.23924 13.0707 7.76184 11.1234 10.9813 11.1234C11.3293 11.1234 12.3243 10.1522 12.3427 9.87061C12.3385 9.77865 10.368 8.99483 9.59988 8.23798C9.18942 7.83359 8.9945 7.63862 8.8219 7.49231C8.72825 7.41322 8.63036 7.33929 8.52864 7.27088C8.2706 6.36808 8.2596 5.41253 8.49687 4.50402C7.33385 5.0336 6.42923 5.87068 5.77159 6.60982H5.76635C5.31755 6.04136 5.34918 4.16613 5.37478 3.77456C5.36939 3.75028 5.03998 3.94556 4.99681 3.975C4.60077 4.25767 4.23051 4.57485 3.89038 4.92284C3.50347 5.31541 3.14991 5.73952 2.83347 6.19082C2.83347 6.19137 2.83315 6.19206 2.83296 6.1926C2.83296 6.19201 2.83328 6.19137 2.83347 6.19082C2.10546 7.2225 1.58912 8.38822 1.31434 9.62065C1.30891 9.6452 1.30434 9.67062 1.29909 9.69536C1.27778 9.79503 1.18199 10.3009 1.16862 10.4094C1.16757 10.4177 1.16962 10.401 1.16862 10.4094C1.08122 10.932 1.0255 11.4595 1.00167 11.989C1.00167 12.0083 1.00049 12.0274 1.00049 12.0468C1.00049 18.2986 6.06947 23.3667 12.3221 23.3667C17.9218 23.3667 22.5712 19.3017 23.4815 13.9623C23.5006 13.8174 23.516 13.6717 23.5329 13.5255C23.758 11.5841 23.508 9.54361 22.7986 7.83724ZM21.6755 8.41861C21.6761 8.42263 21.6768 8.42682 21.6774 8.43079L21.677 8.42956L21.6755 8.41861Z" fill="url(#paint11_linear_157_4533)"/>
<defs>
<linearGradient id="paint0_linear_157_4533" x1="20.7233" y1="3.61489" x2="2.54448" y2="21.1571" gradientUnits="userSpaceOnUse">
<stop offset="0.05" stop-color="#FFF339"/>
<stop offset="0.37" stop-color="#FF9800"/>
<stop offset="0.53" stop-color="#FF3346"/>
<stop offset="0.7" stop-color="#FF0D8A"/>
</linearGradient>
<radialGradient id="paint1_radial_157_4533" cx="0" cy="0" r="1" gradientUnits="userSpaceOnUse" gradientTransform="translate(20.8355 4.97337) scale(23.1555 23.5454)">
<stop offset="0.13" stop-color="#FFBD44"/>
<stop offset="0.28" stop-color="#FF9800"/>
<stop offset="0.47" stop-color="#FF3450"/>
<stop offset="0.78" stop-color="#FF027B"/>
<stop offset="0.86" stop-color="#FF0083"/>
</radialGradient>
<radialGradient id="paint2_radial_157_4533" cx="0" cy="0" r="1" gradientUnits="userSpaceOnUse" gradientTransform="translate(12.0793 12.3385) scale(23.7344 23.5454)">
<stop offset="0.3" stop-color="#AF0611"/>
<stop offset="0.35" stop-color="#CE1223" stop-opacity="0.74"/>
<stop offset="0.43" stop-color="#FD243B" stop-opacity="0.34"/>
<stop offset="0.5" stop-color="#FF304B" stop-opacity="0.09"/>
<stop offset="0.53" stop-color="#FF3450" stop-opacity="0"/>
</radialGradient>
<radialGradient id="paint3_radial_157_4533" cx="0" cy="0" r="1" gradientUnits="userSpaceOnUse" gradientTransform="translate(14.5435 -1.09056) scale(7.59987 12.9027)">
<stop offset="0.13" stop-color="#FFF339"/>
<stop offset="0.53" stop-color="#FF9800"/>
</radialGradient>
<radialGradient id="paint4_radial_157_4533" cx="0" cy="0" r="1" gradientUnits="userSpaceOnUse" gradientTransform="translate(9.52762 18.4113) scale(10.0575 11.0231)">
<stop offset="0.35" stop-color="#008EE9"/>
<stop offset="0.67" stop-color="#A059FF"/>
<stop offset="1" stop-color="#DF36EA"/>
</radialGradient>
<radialGradient id="paint5_radial_157_4533" cx="0" cy="0" r="1" gradientUnits="userSpaceOnUse" gradientTransform="translate(11.9459 9.90721) scale(5.34002 6.50303)">
<stop offset="0.21" stop-color="#A059FF" stop-opacity="0"/>
<stop offset="0.97" stop-color="#80008E" stop-opacity="0.6"/>
</radialGradient>
<radialGradient id="paint6_radial_157_4533" cx="0" cy="0" r="1" gradientUnits="userSpaceOnUse" gradientTransform="translate(11.5619 1.73721) scale(7.99554 8.02396)">
<stop offset="0.1" stop-color="#FFE200"/>
<stop offset="0.79" stop-color="#FF7232"/>
</radialGradient>
<radialGradient id="paint7_radial_157_4533" cx="0" cy="0" r="1" gradientUnits="userSpaceOnUse" gradientTransform="translate(18.8613 -3.52502) scale(38.1725 32.0437)">
<stop offset="0.11" stop-color="#FFF339"/>
<stop offset="0.46" stop-color="#FF9800"/>
<stop offset="0.72" stop-color="#FF3346"/>
<stop offset="0.9" stop-color="#FF0D8A"/>
</radialGradient>
<radialGradient id="paint8_radial_157_4533" cx="0" cy="0" r="1" gradientUnits="userSpaceOnUse" gradientTransform="translate(15.6338 -2.89839) rotate(83.9544) scale(25.0953 25.2831)">
<stop stop-color="#FFF339"/>
<stop offset="0.3" stop-color="#FF9800"/>
<stop offset="0.57" stop-color="#FF3346"/>
<stop offset="0.74" stop-color="#FF0D8A"/>
</radialGradient>
<radialGradient id="paint9_radial_157_4533" cx="0" cy="0" r="1" gradientUnits="userSpaceOnUse" gradientTransform="translate(11.6434 4.62333) scale(21.9161 21.5312)">
<stop offset="0.14" stop-color="#FFF339"/>
<stop offset="0.48" stop-color="#FF9800"/>
<stop offset="0.66" stop-color="#FF3346"/>
<stop offset="0.9" stop-color="#FF0D8A"/>
</radialGradient>
<radialGradient id="paint10_radial_157_4533" cx="0" cy="0" r="1" gradientUnits="userSpaceOnUse" gradientTransform="translate(17.3326 5.88089) scale(26.3425 23.5665)">
<stop offset="0.09" stop-color="#FFF339"/>
<stop offset="0.63" stop-color="#FF9800"/>
</radialGradient>
<linearGradient id="paint11_linear_157_4533" x1="19.6092" y1="3.74839" x2="5.07007" y2="19.6342" gradientUnits="userSpaceOnUse">
<stop offset="0.17" stop-color="#FFF339" stop-opacity="0.8"/>
<stop offset="0.6" stop-color="#FFF339" stop-opacity="0"/>
</linearGradient>
</defs>
</svg>
