<svg width="24" height="24" viewBox="0 0 24 24" fill="none" xmlns="http://www.w3.org/2000/svg">
<path d="M17.8333 2.83398H6.16667C5.062 2.83531 4.00296 3.27472 3.22185 4.05583C2.44073 4.83695 2.00132 5.89599 2 7.00065L2 17.0006C2.00132 18.1053 2.44073 19.1644 3.22185 19.9455C4.00296 20.7266 5.062 21.166 6.16667 21.1673H17.8333C18.938 21.166 19.997 20.7266 20.7782 19.9455C21.5593 19.1644 21.9987 18.1053 22 17.0006V7.00065C21.9987 5.89599 21.5593 4.83695 20.7782 4.05583C19.997 3.27472 18.938 2.83531 17.8333 2.83398ZM6.16667 4.50065H17.8333C18.3323 4.50163 18.8196 4.65191 19.2325 4.93215C19.6453 5.21239 19.9649 5.60977 20.15 6.07315L13.7683 12.4556C13.2987 12.9234 12.6628 13.186 12 13.186C11.3372 13.186 10.7013 12.9234 10.2317 12.4556L3.85 6.07315C4.03512 5.60977 4.35468 5.21239 4.76754 4.93215C5.1804 4.65191 5.66768 4.50163 6.16667 4.50065ZM17.8333 19.5006H6.16667C5.50363 19.5006 4.86774 19.2373 4.3989 18.7684C3.93006 18.2996 3.66667 17.6637 3.66667 17.0006V8.25065L9.05333 13.634C9.83552 14.4142 10.8952 14.8523 12 14.8523C13.1048 14.8523 14.1645 14.4142 14.9467 13.634L20.3333 8.25065V17.0006C20.3333 17.6637 20.0699 18.2996 19.6011 18.7684C19.1323 19.2373 18.4964 19.5006 17.8333 19.5006Z" fill="#474B4F"/>
</svg>
