<svg width="25" height="24" viewBox="0 0 25 24" fill="none" xmlns="http://www.w3.org/2000/svg">
<path d="M22.3333 10.3333V17.8333C22.3333 20.1333 20.4666 22 18.1666 22H6.49992C4.19992 22 2.33325 20.1333 2.33325 17.8333V8.66667C2.33325 6.36667 4.19992 4.5 6.49992 4.5H13.1666C13.6249 4.5 13.9999 4.875 13.9999 5.33333C13.9999 5.79167 13.6249 6.16667 13.1666 6.16667H6.49992C5.54159 6.16667 4.71659 6.70833 4.29159 7.49167L10.5666 13.7667C11.5416 14.7417 13.1249 14.7417 14.0999 13.7667L17.2833 10.5833C17.6083 10.2583 18.1333 10.2583 18.4583 10.5833C18.7833 10.9083 18.7833 11.4333 18.4583 11.7583L15.2749 14.9417C14.4666 15.75 13.3916 16.1583 12.3249 16.1583C11.2583 16.1583 10.1916 15.75 9.37492 14.9417L3.99992 9.55833V17.8333C3.99992 19.2083 5.12492 20.3333 6.49992 20.3333H18.1666C19.5416 20.3333 20.6666 19.2083 20.6666 17.8333V10.3333C20.6666 9.875 21.0416 9.5 21.4999 9.5C21.9583 9.5 22.3333 9.875 22.3333 10.3333ZM15.6666 5.33333C15.6666 3.49167 17.1583 2 18.9999 2C20.8416 2 22.3333 3.49167 22.3333 5.33333C22.3333 7.175 20.8416 8.66667 18.9999 8.66667C17.1583 8.66667 15.6666 7.175 15.6666 5.33333ZM17.3333 5.33333C17.3333 6.25 18.0833 7 18.9999 7C19.9166 7 20.6666 6.25 20.6666 5.33333C20.6666 4.41667 19.9166 3.66667 18.9999 3.66667C18.0833 3.66667 17.3333 4.41667 17.3333 5.33333Z" fill="#474B4F"/>
</svg>
