<svg width="25" height="24" viewBox="0 0 25 24" fill="none" xmlns="http://www.w3.org/2000/svg">
<path d="M22.6667 10.3333V17.8333C22.6654 18.938 22.226 19.997 21.4449 20.7782C20.6638 21.5593 19.6047 21.9987 18.5001 22H6.83341C5.72875 21.9987 4.66971 21.5593 3.8886 20.7782C3.10748 19.997 2.66807 18.938 2.66675 17.8333L2.66675 8.66667C2.66807 7.562 3.10748 6.50296 3.8886 5.72185C4.66971 4.94073 5.72875 4.50132 6.83341 4.5H13.5001C13.7211 4.5 13.9331 4.5878 14.0893 4.74408C14.2456 4.90036 14.3334 5.11232 14.3334 5.33333C14.3334 5.55435 14.2456 5.76631 14.0893 5.92259C13.9331 6.07887 13.7211 6.16667 13.5001 6.16667H6.83341C6.38025 6.16792 5.93602 6.29273 5.54851 6.52767C5.16101 6.76261 4.84491 7.09878 4.63425 7.5L10.8984 13.765C11.3682 14.2326 12.004 14.495 12.6667 14.495C13.3295 14.495 13.9653 14.2326 14.4351 13.765L17.6192 10.5833C17.7764 10.4315 17.9869 10.3475 18.2054 10.3494C18.4239 10.3513 18.6329 10.439 18.7874 10.5935C18.9419 10.748 19.0296 10.957 19.0315 11.1755C19.0334 11.394 18.9494 11.6045 18.7976 11.7617L15.6134 14.9467C14.8311 15.7267 13.7715 16.1647 12.6667 16.1647C11.562 16.1647 10.5024 15.7267 9.72008 14.9467L4.33341 9.55917V17.8333C4.33341 18.4964 4.59681 19.1323 5.06565 19.6011C5.53449 20.0699 6.17037 20.3333 6.83341 20.3333H18.5001C19.1631 20.3333 19.799 20.0699 20.2678 19.6011C20.7367 19.1323 21.0001 18.4964 21.0001 17.8333V10.3333C21.0001 10.1123 21.0879 9.90036 21.2442 9.74408C21.4004 9.5878 21.6124 9.5 21.8334 9.5C22.0544 9.5 22.2664 9.5878 22.4227 9.74408C22.579 9.90036 22.6667 10.1123 22.6667 10.3333ZM16.8334 6.16667H18.5001V7.83333C18.5001 8.05435 18.5879 8.26631 18.7442 8.42259C18.9004 8.57887 19.1124 8.66667 19.3334 8.66667C19.5544 8.66667 19.7664 8.57887 19.9227 8.42259C20.079 8.26631 20.1667 8.05435 20.1667 7.83333V6.16667H21.8334C22.0544 6.16667 22.2664 6.07887 22.4227 5.92259C22.579 5.76631 22.6667 5.55435 22.6667 5.33333C22.6667 5.11232 22.579 4.90036 22.4227 4.74408C22.2664 4.5878 22.0544 4.5 21.8334 4.5H20.1667V2.83333C20.1667 2.61232 20.079 2.40036 19.9227 2.24408C19.7664 2.0878 19.5544 2 19.3334 2C19.1124 2 18.9004 2.0878 18.7442 2.24408C18.5879 2.40036 18.5001 2.61232 18.5001 2.83333V4.5H16.8334C16.6124 4.5 16.4004 4.5878 16.2442 4.74408C16.0879 4.90036 16.0001 5.11232 16.0001 5.33333C16.0001 5.55435 16.0879 5.76631 16.2442 5.92259C16.4004 6.07887 16.6124 6.16667 16.8334 6.16667Z" fill="#474B4F"/>
</svg>
