<svg width="24" height="24" viewBox="0 0 24 24" fill="none" xmlns="http://www.w3.org/2000/svg">
<path d="M18.2188 17.4844V7.92188C18.2188 7.48094 17.8628 7.125 17.4219 7.125C16.9809 7.125 16.625 7.48094 16.625 7.92188V17.4844C16.625 19.9759 14.6009 22 12.1094 22C9.61781 22 7.59375 19.9759 7.59375 17.4844V5.26562C7.59375 3.65594 8.90594 2.34375 10.5156 2.34375C12.1253 2.34375 13.4375 3.65594 13.4375 5.26562V16.6875C13.4375 17.0397 13.2976 17.3776 13.0485 17.6266C12.7994 17.8757 12.4616 18.0156 12.1094 18.0156C11.7571 18.0156 11.4193 17.8757 11.1702 17.6266C10.9212 17.3776 10.7812 17.0397 10.7812 16.6875V6.32812C10.7812 5.88719 10.4253 5.53125 9.98438 5.53125C9.54344 5.53125 9.1875 5.88719 9.1875 6.32812V16.6875C9.1875 18.2972 10.4997 19.6094 12.1094 19.6094C13.7191 19.6094 15.0312 18.2972 15.0312 16.6875V5.26562C15.0312 2.77406 13.0072 0.75 10.5156 0.75C8.02406 0.75 6 2.77406 6 5.26562V17.4844C6 20.8525 8.74125 23.5938 12.1094 23.5938C15.4775 23.5938 18.2188 20.8525 18.2188 17.4844Z" fill="#A3A8B7"/>
</svg>
